<svg version="1.1" xmlns="http://www.w3.org/2000/svg" style="display: block;" viewBox="0 0 2048 2048" width="1024" height="1024">
<defs>
	<linearGradient id="Gradient1" gradientUnits="userSpaceOnUse" x1="1906.03" y1="1202.4" x2="1208.56" y2="1433.87">
		<stop class="stop0" offset="0" stop-opacity="1" stop-color="rgb(2,127,82)"/>
		<stop class="stop1" offset="1" stop-opacity="1" stop-color="rgb(5,154,99)"/>
	</linearGradient>
</defs>
<path transform="translate(0,0)" fill="rgb(241,223,196)" d="M 0 0 L 2048 0 L 2048 2048 L 0 2048 L 0 0 z"/>
<path transform="translate(0,0)" fill="rgb(3,19,57)" d="M 825.987 539.857 C 838.554 509.958 851.689 481.059 866.609 452.267 C 872.437 441.022 877.654 429.09 885.925 419.378 C 893.791 410.129 903.76 402.9 914.996 398.298 C 922.446 395.229 929.901 392.657 938.018 392.229 C 972.039 390.434 1006.78 391.935 1040.87 391.965 L 1233.52 391.909 L 1463.03 391.758 C 1504.92 391.665 1547.37 390.225 1589.21 391.702 C 1597.68 392.001 1605.04 392.803 1612.96 396.106 C 1623.09 400.333 1631.42 405.191 1638.59 413.703 C 1649.61 426.778 1656.08 445.318 1663.71 460.661 C 1676.6 486.582 1689.53 513.243 1703.89 538.341 C 1741.34 538.477 1772.13 548.492 1798.98 575.532 C 1820.37 597.304 1834.57 625.117 1839.65 655.215 C 1843.79 681.285 1841.31 720.135 1841.23 747.15 L 1841.02 916.314 L 1840.78 1511.72 C 1840.51 1541.15 1833.14 1565.11 1817.24 1589.91 L 1818.82 1590.44 C 1841.3 1597.92 1889.69 1608.45 1901.67 1631.43 C 1903.84 1635.59 1904.69 1639.73 1902.99 1644.22 C 1897.96 1657.44 1877.66 1667.46 1865.31 1672.47 C 1820.71 1690.57 1774.63 1700.46 1727.53 1709.29 C 1661.55 1721.67 1595.51 1729.82 1528.74 1736.42 C 1284.89 1759.3 1039.76 1765.57 795.057 1755.16 C 650.127 1749.33 505.753 1739.7 362.576 1715.48 C 306.065 1705.92 246.145 1696.37 193.191 1673.64 C 182.311 1668.96 166.532 1661.78 161.658 1650.21 C 159.832 1645.87 160.081 1641.51 161.956 1637.24 C 169.053 1621.08 194.376 1611.13 209.899 1605.6 C 220.012 1601.99 230.827 1600.48 240.743 1596.84 C 227.441 1578.36 216.639 1556.18 213.278 1533.47 C 209.629 1508.82 212.288 1478.43 212.224 1453.14 L 211.196 1303.21 L 209.842 1097.42 C 209.741 1062.94 207.882 1019.84 211.493 986.04 C 210.774 984.752 211.192 985.207 210.035 984.298 C 198.914 975.559 186.622 963.613 179.282 951.506 C 166.661 930.688 163.209 904.336 169.185 880.798 C 174.749 858.884 190.079 835.153 209.839 823.521 C 209.975 823.092 210.122 822.667 210.249 822.235 C 213 812.893 211.069 787.763 211.066 777.065 C 211.059 755.21 211.6 733.349 211.812 711.495 C 211.982 693.993 211.207 676.277 213.385 658.882 C 218.647 616.853 241.982 576.724 279.013 555.131 C 312.93 535.354 346.907 537.037 384.633 536.957 C 384.36 516.649 381.897 493.503 397.613 477.752 C 408.068 467.273 421.467 464.966 435.546 464.812 C 446.494 443.368 464.369 427.126 487.433 419.495 C 515.827 410.102 555.578 410.522 582.533 424.394 C 601.046 433.922 611.173 448.086 620.421 466.224 C 634.407 465.013 647.74 465.088 659.067 474.785 C 669.889 484.05 673.347 497.571 674.078 511.229 C 674.57 520.403 674.54 529.627 674.601 538.813 C 724.873 538.839 775.783 537.366 825.987 539.857 z"/>
<path transform="translate(0,0)" fill="rgb(3,19,57)" d="M 802.948 886.905 C 812.384 873.549 824.997 861.113 836.597 849.579 C 898.842 787.688 977.197 748.447 1063.63 733.496 C 1172.61 714.695 1284.56 740.611 1374.19 805.388 C 1395.6 820.54 1416.46 836.775 1434.45 855.954 C 1445.77 868.029 1455.8 881.529 1467.5 893.175 C 1469.37 895.933 1471.36 899.689 1473.69 902.023 C 1485.15 918.915 1496.45 935.943 1505.99 954.019 C 1534.42 1007.91 1551.71 1071.82 1554.12 1132.67 L 1554.25 1133.78 C 1555.33 1142.94 1558.14 1151.93 1559.74 1161.03 C 1562.13 1174.58 1563.25 1188.62 1564.34 1202.32 C 1572.04 1299.17 1547.88 1393.18 1487.67 1470.35 C 1452.78 1515.48 1408.22 1552.21 1357.27 1577.85 C 1342.13 1585.45 1326.37 1591.78 1310.84 1598.51 C 1309.64 1599.2 1308.33 1600.26 1306.95 1600.39 C 1291.57 1607.23 1276.33 1612.87 1260.15 1617.51 L 1264.22 1619.06 C 1241.8 1618.12 1219.15 1618.66 1196.71 1618.56 C 1151.05 1618.33 1105.39 1618.37 1059.73 1618.67 C 1032.21 1618.81 1004.2 1619.8 976.718 1618.19 C 998.729 1617.17 1020.83 1618.45 1042.87 1617.73 C 1031.37 1613.23 1020.34 1607.1 1008.91 1602.27 L 1006.19 1601.44 C 982.136 1591.2 942.651 1566.61 920.375 1550.98 C 867.926 1514.19 822.062 1462.61 790.248 1407 C 784.696 1397.3 777.329 1385.84 775.415 1374.85 C 770.092 1361.5 760.373 1348.32 753.709 1335.4 C 740.993 1310.75 731.985 1283.67 725.192 1256.81 C 701.331 1166.1 708.366 1070.02 745.188 983.755 C 756.026 958.215 768.651 934.265 784.568 911.508 C 787.039 907.974 794.614 899.572 794.07 895.974 C 794.652 894.174 795.317 892.799 796.326 891.199 C 798.857 890.098 801.455 889.375 802.948 886.905 z"/>
<path transform="translate(0,0)" fill="rgb(2,131,81)" d="M 1554.12 1132.67 L 1554.25 1133.78 C 1555.33 1142.94 1558.14 1151.93 1559.74 1161.03 C 1562.13 1174.58 1563.25 1188.62 1564.34 1202.32 C 1572.04 1299.17 1547.88 1393.18 1487.67 1470.35 C 1452.78 1515.48 1408.22 1552.21 1357.27 1577.85 C 1342.13 1585.45 1326.37 1591.78 1310.84 1598.51 C 1309.64 1599.2 1308.33 1600.26 1306.95 1600.39 C 1291.57 1607.23 1276.33 1612.87 1260.15 1617.51 L 1264.22 1619.06 C 1241.8 1618.12 1219.15 1618.66 1196.71 1618.56 C 1151.05 1618.33 1105.39 1618.37 1059.73 1618.67 C 1032.21 1618.81 1004.2 1619.8 976.718 1618.19 C 998.729 1617.17 1020.83 1618.45 1042.87 1617.73 C 1031.37 1613.23 1020.34 1607.1 1008.91 1602.27 L 1006.19 1601.44 C 982.136 1591.2 942.651 1566.61 920.375 1550.98 C 867.926 1514.19 822.062 1462.61 790.248 1407 C 784.696 1397.3 777.329 1385.84 775.415 1374.85 C 782.97 1382.77 788.601 1393.84 794.956 1402.86 C 805.521 1417.63 817.288 1431.5 830.137 1444.33 C 907.477 1521.78 1016.07 1570.03 1126.08 1570 C 1240.12 1570.76 1349.76 1526.08 1430.77 1445.82 C 1484.78 1391.73 1526.07 1319.08 1542.99 1244.41 C 1551.33 1207.56 1554.11 1170.37 1554.12 1132.67 z"/>
<path transform="translate(0,0)" fill="rgb(2,101,58)" d="M 1008.91 1602.27 C 1019 1601.09 1029.99 1601.89 1040.2 1601.83 L 1088.63 1601.12 L 1243.9 1600.15 C 1252.61 1600.11 1302.15 1598.16 1306.95 1600.39 C 1291.57 1607.23 1276.33 1612.87 1260.15 1617.51 L 1264.22 1619.06 C 1241.8 1618.12 1219.15 1618.66 1196.71 1618.56 C 1151.05 1618.33 1105.39 1618.37 1059.73 1618.67 C 1032.21 1618.81 1004.2 1619.8 976.718 1618.19 C 998.729 1617.17 1020.83 1618.45 1042.87 1617.73 C 1031.37 1613.23 1020.34 1607.1 1008.91 1602.27 z"/>
<path transform="translate(0,0)" fill="rgb(51,187,229)" d="M 756.139 1255.1 C 704.087 1069.83 794.749 874.262 969.772 794.26 C 1144.79 714.257 1352.01 773.671 1458.05 934.261 C 1462.46 940.94 1466.66 947.753 1470.65 954.69 C 1545.73 1085.18 1539.13 1247.21 1453.67 1371.16 C 1368.21 1495.1 1219.12 1558.89 1070.46 1535.12 C 921.797 1511.34 800.038 1404.24 757.497 1259.82 C 757.034 1258.25 756.582 1256.68 756.139 1255.1 z"/>
<path transform="translate(0,0)" fill="rgb(11,147,200)" d="M 1470.65 954.69 C 1545.73 1085.18 1539.13 1247.21 1453.67 1371.16 C 1368.21 1495.1 1219.12 1558.89 1070.46 1535.12 C 921.797 1511.34 800.038 1404.24 757.497 1259.82 C 763.604 1266.63 775.832 1295.75 782.257 1306.84 C 811.962 1358.5 853.046 1402.72 902.391 1436.14 C 989.382 1495.85 1096.62 1518.33 1200.27 1498.58 C 1294.24 1481.14 1384.53 1424.56 1438.47 1345.22 C 1501.25 1253.89 1522.66 1140.35 1497.47 1032.43 C 1493.8 1016.6 1489.25 999.965 1483.26 984.872 C 1479.79 976.148 1472.36 965.683 1470.92 956.634 C 1470.82 955.988 1470.74 955.338 1470.65 954.69 z"/>
<path transform="translate(0,0)" fill="rgb(162,229,246)" d="M 756.139 1255.1 C 704.087 1069.83 794.749 874.262 969.772 794.26 C 1144.79 714.257 1352.01 773.671 1458.05 934.261 L 1455.04 936.201 C 1446.19 929.927 1437.64 917.047 1429.7 908.959 C 1416.34 895.351 1401.88 882.876 1387.23 870.691 C 1300.12 798.245 1189.39 770.153 1077.95 788.803 C 977.208 805.242 887.18 861.169 827.805 944.196 C 777.43 1015.28 753.866 1101.9 754.666 1188.46 C 754.798 1202.76 759.297 1244.55 756.139 1255.1 z"/>
<path transform="translate(0,0)" fill="rgb(3,19,57)" d="M 1112.23 861.343 C 1271.19 848.765 1410.23 967.461 1422.76 1126.42 C 1435.28 1285.39 1316.54 1424.39 1157.57 1436.86 C 998.68 1449.32 859.759 1330.65 847.242 1171.76 C 834.725 1012.88 953.35 873.915 1112.23 861.343 z"/>
<path transform="translate(0,0)" fill="rgb(249,157,34)" d="M 855.957 1118.55 C 857.364 1097.45 863.572 1074.97 870.707 1055.18 C 896.146 986.105 947.703 929.785 1014.27 898.356 C 1077.89 868.751 1155.8 863.026 1222.23 887.132 C 1252.34 893.964 1292.83 917.982 1315.14 938.292 C 1369.83 979.98 1404.69 1051.39 1413.65 1118.55 C 1422.56 1188.21 1403.75 1258.58 1361.26 1314.5 C 1314.73 1375.68 1245.73 1415.79 1169.53 1425.94 C 1097.99 1435.08 1021.34 1413.36 964.468 1368.81 C 905.423 1322.54 864.647 1253.19 855.896 1178.39 C 853.73 1159.88 851.828 1136.91 855.957 1118.55 z"/>
<path transform="translate(0,0)" fill="rgb(217,89,18)" d="M 1315.14 938.292 C 1369.83 979.98 1404.69 1051.39 1413.65 1118.55 C 1422.56 1188.21 1403.75 1258.58 1361.26 1314.5 C 1314.73 1375.68 1245.73 1415.79 1169.53 1425.94 C 1097.99 1435.08 1021.34 1413.36 964.468 1368.81 C 905.423 1322.54 864.647 1253.19 855.896 1178.39 C 853.73 1159.88 851.828 1136.91 855.957 1118.55 C 856.692 1119.51 857.656 1120.35 858.164 1121.45 C 860.302 1126.1 860.062 1149.62 860.628 1156.19 C 862.752 1180.89 866.884 1206.57 874.275 1230.22 C 874.509 1235.24 877.051 1241.18 878.987 1245.79 C 897.057 1288.85 939.314 1333.59 978.101 1359.59 C 994.46 1370.56 1012.45 1379.43 1030.72 1386.75 C 1092.25 1411.4 1165.22 1407.56 1225.64 1381.65 C 1292.26 1353.08 1354.38 1295.16 1381.33 1226.88 C 1414.24 1144.55 1402.45 1051.09 1350.13 979.516 C 1343.48 970.319 1317.8 946.051 1315.64 939.962 C 1315.45 939.414 1315.3 938.849 1315.14 938.292 z"/>
<path transform="translate(0,0)" fill="rgb(219,181,145)" d="M 855.957 1118.55 C 857.364 1097.45 863.572 1074.97 870.707 1055.18 C 896.146 986.105 947.703 929.785 1014.27 898.356 C 1077.89 868.751 1155.8 863.026 1222.23 887.132 C 1221.84 887.359 1221.46 887.602 1221.05 887.814 C 1218.67 889.064 1169.64 887.243 1160.99 887.777 C 1139.96 889.076 1118.29 893.29 1097.92 898.618 C 1022.11 918.447 958.318 961.291 917.589 1029.07 C 910.315 1041.18 903.02 1053.72 897.991 1066.95 C 883.9 1104.8 875.095 1144.42 871.823 1184.68 C 871.112 1194.62 877.224 1224.16 874.275 1230.22 C 866.884 1206.57 862.752 1180.89 860.628 1156.19 C 860.062 1149.62 860.302 1126.1 858.164 1121.45 C 857.656 1120.35 856.692 1119.51 855.957 1118.55 z"/>
<path transform="translate(0,0)" fill="rgb(31,38,56)" d="M 1121.3 979.957 C 1215.75 971.721 1299.01 1041.57 1307.32 1136.02 C 1315.63 1230.47 1245.84 1313.79 1151.4 1322.17 C 1056.86 1330.56 973.431 1260.68 965.113 1166.13 C 956.795 1071.58 1026.74 988.201 1121.3 979.957 z"/>
<path transform="translate(0,0)" fill="rgb(254,254,254)" d="M 1073.98 1009.61 C 1121.2 1001.44 1166.06 1033.24 1173.98 1080.51 C 1181.9 1127.78 1149.85 1172.47 1102.54 1180.13 C 1055.59 1187.73 1011.32 1155.98 1003.46 1109.08 C 995.602 1062.17 1027.11 1017.73 1073.98 1009.61 z"/>
<path transform="translate(0,0)" fill="rgb(254,254,254)" d="M 1202.4 1191.75 C 1220.46 1189.22 1237.15 1201.83 1239.66 1219.89 C 1242.18 1237.96 1229.56 1254.64 1211.5 1257.15 C 1193.44 1259.65 1176.78 1247.05 1174.26 1228.99 C 1171.75 1210.94 1184.34 1194.27 1202.4 1191.75 z"/>
<path transform="translate(0,0)" fill="rgb(12,181,140)" d="M 221.003 984.163 C 220.903 984.033 220.843 983.86 220.704 983.772 C 204.714 973.774 191.71 959.655 183.058 942.899 C 170.368 918.063 171.021 889.235 183.177 864.347 C 185.874 858.826 191.599 852.836 193.142 847.24 C 196.194 836.168 230.785 816.372 240.423 808.094 C 240.807 807.765 241.182 807.426 241.561 807.092 L 243.026 808.643 C 251.23 808.604 259.301 806.533 267.498 806.315 C 292.174 805.657 317.959 818.845 335.141 835.856 C 338.592 839.273 341.649 843.061 344.708 846.827 C 352.513 859.77 357.82 871.776 361.264 886.468 C 395.9 887.023 430.889 885.439 465.455 887.003 C 481.808 885.092 500.155 886.763 516.731 886.75 L 632.532 886.734 L 745.02 886.543 C 763.899 886.494 784.248 884.903 802.948 886.905 C 801.455 889.375 798.857 890.098 796.326 891.199 C 795.317 892.799 794.652 894.174 794.07 895.974 C 794.614 899.572 787.039 907.974 784.568 911.508 C 768.651 934.265 756.026 958.215 745.188 983.755 C 708.366 1070.02 701.331 1166.1 725.192 1256.81 C 731.985 1283.67 740.993 1310.75 753.709 1335.4 C 760.373 1348.32 770.092 1361.5 775.415 1374.85 C 777.329 1385.84 784.696 1397.3 790.248 1407 C 822.062 1462.61 867.926 1514.19 920.375 1550.98 C 942.651 1566.61 982.136 1591.2 1006.19 1601.44 L 1008.91 1602.27 C 1020.34 1607.1 1031.37 1613.23 1042.87 1617.73 C 1020.83 1618.45 998.729 1617.17 976.718 1618.19 L 552.418 1618.03 L 418.547 1618.03 C 395.72 1618.06 372.756 1618.75 349.947 1618.14 C 319.493 1617.33 288.522 1604.77 267.533 1582.45 C 254.791 1568.7 246.348 1551.53 243.244 1533.05 C 239.849 1513.95 241.329 1493.06 241.454 1473.69 L 241.773 1393.88 L 241.936 1241.91 C 241.914 1212.97 241.271 1183.89 242.142 1154.97 L 241.925 1049.82 C 241.833 1038.35 239.825 1008.31 242.827 998.35 C 233.673 991.953 222.527 987.713 211.493 986.04 C 210.774 984.752 211.192 985.207 210.035 984.298 C 198.914 975.559 186.622 963.613 179.282 951.506 C 166.661 930.688 163.209 904.336 169.185 880.798 C 174.749 858.884 190.079 835.153 209.839 823.521 L 210.216 826.034 C 187.884 843.902 171.453 865.941 168.306 895.043 C 165.324 922.614 175.238 944.383 192.29 965.33 C 200.25 975.108 208.731 980.049 219.739 985.855 L 221.317 985.512 L 221.003 984.163 z"/>
<path transform="translate(0,0)" fill="rgb(41,207,151)" d="M 349.577 999.1 C 352.484 1006.26 350.225 1196.96 350.231 1224.5 L 351.039 1442.69 C 351.044 1464.79 348.485 1532.85 353.825 1548.97 C 361.207 1571.25 378.313 1588.41 399.678 1597.54 C 408.311 1601.22 425.656 1604.89 432.264 1609.97 C 453.704 1612.17 478.445 1610.19 500.148 1610.14 C 566.886 1610 633.526 1607.13 700.242 1606.26 L 914.512 1603.21 L 977.177 1602.6 C 986.661 1602.43 996.831 1602.95 1006.19 1601.44 L 1008.91 1602.27 C 1020.34 1607.1 1031.37 1613.23 1042.87 1617.73 C 1020.83 1618.45 998.729 1617.17 976.718 1618.19 L 552.418 1618.03 L 418.547 1618.03 C 395.72 1618.06 372.756 1618.75 349.947 1618.14 C 319.493 1617.33 288.522 1604.77 267.533 1582.45 C 254.791 1568.7 246.348 1551.53 243.244 1533.05 C 239.849 1513.95 241.329 1493.06 241.454 1473.69 L 241.773 1393.88 L 241.936 1241.91 C 241.914 1212.97 241.271 1183.89 242.142 1154.97 L 241.925 1049.82 C 250.161 1050.01 258.537 1050.29 266.748 1049.53 C 302.389 1046.22 327.623 1025.68 349.577 999.1 z"/>
<path transform="translate(0,0)" fill="rgb(2,131,81)" d="M 242.142 1154.97 C 244.689 1187.35 242.827 1221.07 242.884 1253.58 L 243.341 1442.12 C 243.444 1471.64 240.414 1516.06 247.392 1543.61 C 251.776 1560.92 264.549 1578.21 278.053 1589.63 C 287.202 1597.37 302.236 1607.52 314.36 1608.73 L 312.508 1608.6 L 314.54 1607.49 C 311.516 1604.37 308.97 1603.24 304.867 1601.98 C 288.247 1596.86 272.267 1578.44 264.487 1563.51 C 256.621 1548.41 251.919 1531.55 249.429 1514.75 C 245.21 1486.28 247.331 1457.06 246.656 1428.4 C 246.221 1409.9 245.973 1391.47 245.972 1372.96 C 245.972 1365.67 245.123 1357.19 246.316 1350.04 C 247.244 1379.53 247.391 1409.15 247.84 1438.66 C 248.58 1487.4 244.218 1549.48 283.16 1585.96 C 309.951 1611.06 343.535 1611.62 377.985 1611.1 C 396.076 1610.82 414.176 1610.11 432.264 1609.97 C 453.704 1612.17 478.445 1610.19 500.148 1610.14 C 566.886 1610 633.526 1607.13 700.242 1606.26 L 914.512 1603.21 L 977.177 1602.6 C 986.661 1602.43 996.831 1602.95 1006.19 1601.44 L 1008.91 1602.27 C 1020.34 1607.1 1031.37 1613.23 1042.87 1617.73 C 1020.83 1618.45 998.729 1617.17 976.718 1618.19 L 552.418 1618.03 L 418.547 1618.03 C 395.72 1618.06 372.756 1618.75 349.947 1618.14 C 319.493 1617.33 288.522 1604.77 267.533 1582.45 C 254.791 1568.7 246.348 1551.53 243.244 1533.05 C 239.849 1513.95 241.329 1493.06 241.454 1473.69 L 241.773 1393.88 L 241.936 1241.91 C 241.914 1212.97 241.271 1183.89 242.142 1154.97 z"/>
<path transform="translate(0,0)" fill="rgb(244,137,84)" d="M 221.003 984.163 C 220.903 984.033 220.843 983.86 220.704 983.772 C 204.714 973.774 191.71 959.655 183.058 942.899 C 170.368 918.063 171.021 889.235 183.177 864.347 C 185.874 858.826 191.599 852.836 193.142 847.24 C 196.194 836.168 230.785 816.372 240.423 808.094 C 240.807 807.765 241.182 807.426 241.561 807.092 L 243.026 808.643 C 251.23 808.604 259.301 806.533 267.498 806.315 C 292.174 805.657 317.959 818.845 335.141 835.856 C 338.592 839.273 341.649 843.061 344.708 846.827 C 352.513 859.77 357.82 871.776 361.264 886.468 C 395.9 887.023 430.889 885.439 465.455 887.003 L 464.202 887.14 C 438.72 889.694 412.209 888.015 386.56 888.633 C 379.216 888.81 371.052 888.26 363.848 889.389 C 361.595 889.742 360.251 890.484 358.643 892.058 C 356.313 897.126 357.409 905.804 355.039 912.822 L 354.207 913 L 353.682 912.291 C 347.073 940.397 337.956 961.441 312.445 977.421 C 288.371 992.5 262.893 993.31 235.893 987.517 L 234.402 988.7 C 229.909 987.268 225.442 985.756 221.003 984.163 z"/>
<path transform="translate(0,0)" fill="rgb(219,181,145)" d="M 221.003 984.163 C 220.903 984.033 220.843 983.86 220.704 983.772 C 204.714 973.774 191.71 959.655 183.058 942.899 C 170.368 918.063 171.021 889.235 183.177 864.347 C 185.874 858.826 191.599 852.836 193.142 847.24 C 196.194 836.168 230.785 816.372 240.423 808.094 C 240.807 807.765 241.182 807.426 241.561 807.092 L 243.026 808.643 C 251.23 808.604 259.301 806.533 267.498 806.315 C 292.174 805.657 317.959 818.845 335.141 835.856 C 338.592 839.273 341.649 843.061 344.708 846.827 C 352.513 859.77 357.82 871.776 361.264 886.468 C 395.9 887.023 430.889 885.439 465.455 887.003 L 464.202 887.14 C 438.72 889.694 412.209 888.015 386.56 888.633 C 379.216 888.81 371.052 888.26 363.848 889.389 C 361.595 889.742 360.251 890.484 358.643 892.058 C 356.313 897.126 357.409 905.804 355.039 912.822 L 354.207 913 L 353.682 912.291 C 353.991 908.37 353.938 904.44 353.952 900.51 L 353.954 899.816 C 353.578 899.533 353.195 899.257 352.824 898.965 C 346.54 894.023 341.358 884.015 335.845 877.745 C 314.883 853.908 285.801 839.754 253.725 842.662 C 230.489 844.853 209.124 856.336 194.475 874.506 C 188.499 881.845 182.414 891.34 179.9 900.538 C 179.098 904.024 178.617 908.185 176.289 910.967 L 175.225 910.249 C 178.932 935.937 190.417 958.852 211.574 974.608 C 219.273 980.342 227.942 982.643 235.893 987.517 L 234.402 988.7 C 229.909 987.268 225.442 985.756 221.003 984.163 z"/>
<path transform="translate(0,0)" fill="rgb(0,0,7)" d="M 221.003 984.163 C 220.903 984.033 220.843 983.86 220.704 983.772 C 204.714 973.774 191.71 959.655 183.058 942.899 C 170.368 918.063 171.021 889.235 183.177 864.347 C 185.874 858.826 191.599 852.836 193.142 847.24 C 196.194 836.168 230.785 816.372 240.423 808.094 C 240.807 807.765 241.182 807.426 241.561 807.092 L 243.026 808.643 C 251.23 808.604 259.301 806.533 267.498 806.315 C 292.174 805.657 317.959 818.845 335.141 835.856 C 338.592 839.273 341.649 843.061 344.708 846.827 C 352.513 859.77 357.82 871.776 361.264 886.468 C 395.9 887.023 430.889 885.439 465.455 887.003 L 464.202 887.14 C 438.72 889.694 412.209 888.015 386.56 888.633 C 379.216 888.81 371.052 888.26 363.848 889.389 C 361.595 889.742 360.251 890.484 358.643 892.058 C 356.313 897.126 357.409 905.804 355.039 912.822 L 354.207 913 L 353.682 912.291 C 353.991 908.37 353.938 904.44 353.952 900.51 L 353.954 899.816 C 354.466 879.416 344.269 857.577 330.436 842.902 C 313.995 825.462 289.855 815.257 265.993 814.644 C 242.086 814.031 220.203 823.811 203.126 840.294 C 187.339 855.532 175.43 879.172 175.088 901.392 C 175.064 904.345 175.109 907.298 175.225 910.249 C 178.932 935.937 190.417 958.852 211.574 974.608 C 219.273 980.342 227.942 982.643 235.893 987.517 L 234.402 988.7 C 229.909 987.268 225.442 985.756 221.003 984.163 z"/>
<path transform="translate(0,0)" fill="rgb(217,89,18)" d="M 179.9 900.538 C 188.722 913.845 199.19 924.827 211.827 934.606 C 232.083 950.279 254.939 957.999 280.601 954.535 C 306.35 951.06 326.25 937.454 342.01 917.365 C 345.9 912.407 348.978 906.932 352.809 901.97 L 353.952 900.51 C 353.938 904.44 353.991 908.37 353.682 912.291 C 347.073 940.397 337.956 961.441 312.445 977.421 C 288.371 992.5 262.893 993.31 235.893 987.517 C 227.942 982.643 219.273 980.342 211.574 974.608 C 190.417 958.852 178.932 935.937 175.225 910.249 L 176.289 910.967 C 178.617 908.185 179.098 904.024 179.9 900.538 z"/>
<path transform="translate(0,0)" fill="rgb(31,38,56)" d="M 209.839 823.521 L 210.216 826.034 C 187.884 843.902 171.453 865.941 168.306 895.043 C 165.324 922.614 175.238 944.383 192.29 965.33 C 200.25 975.108 208.731 980.049 219.739 985.855 L 221.317 985.512 L 221.003 984.163 C 225.442 985.756 229.909 987.268 234.402 988.7 L 235.893 987.517 C 262.893 993.31 288.371 992.5 312.445 977.421 C 337.956 961.441 347.073 940.397 353.682 912.291 L 354.207 913 L 355.039 912.822 C 357.409 905.804 356.313 897.126 358.643 892.058 C 360.251 890.484 361.595 889.742 363.848 889.389 C 371.052 888.26 379.216 888.81 386.56 888.633 C 412.209 888.015 438.72 889.694 464.202 887.14 L 465.455 887.003 C 481.808 885.092 500.155 886.763 516.731 886.75 L 632.532 886.734 L 745.02 886.543 C 763.899 886.494 784.248 884.903 802.948 886.905 C 801.455 889.375 798.857 890.098 796.326 891.199 C 795.317 892.799 794.652 894.174 794.07 895.974 L 522.402 896.348 C 469.373 896.362 416.228 897.047 363.211 896.029 C 363.162 903.275 363.402 910.67 362.797 917.886 L 362.832 918.81 C 363.112 924.844 364.562 930.724 365.032 936.764 C 366.794 959.422 362.671 980.193 349.577 999.1 C 327.623 1025.68 302.389 1046.22 266.748 1049.53 C 258.537 1050.29 250.161 1050.01 241.925 1049.82 C 241.833 1038.35 239.825 1008.31 242.827 998.35 C 233.673 991.953 222.527 987.713 211.493 986.04 C 210.774 984.752 211.192 985.207 210.035 984.298 C 198.914 975.559 186.622 963.613 179.282 951.506 C 166.661 930.688 163.209 904.336 169.185 880.798 C 174.749 858.884 190.079 835.153 209.839 823.521 z"/>
<path transform="translate(0,0)" fill="rgb(2,131,81)" d="M 362.797 917.886 L 362.832 918.81 C 363.112 924.844 364.562 930.724 365.032 936.764 C 366.794 959.422 362.671 980.193 349.577 999.1 C 327.623 1025.68 302.389 1046.22 266.748 1049.53 C 258.537 1050.29 250.161 1050.01 241.925 1049.82 C 241.833 1038.35 239.825 1008.31 242.827 998.35 L 243.897 998.547 C 271.12 1003.33 298.347 998.724 321.152 982.726 C 343.084 967.341 358.285 944.39 362.797 917.886 z"/>
<path transform="translate(0,0)" fill="rgb(249,157,34)" d="M 344.708 846.827 C 346.343 845.35 346.807 844.227 347.178 842.03 C 348.965 831.461 346.988 818.417 346.888 807.651 L 346.563 737.858 C 346.463 723.15 345.599 707.922 346.781 693.264 C 348.636 670.252 359.1 643.314 377.221 628.259 C 382.926 623.52 392.535 616.884 400.011 616.142 C 426.094 613.553 454.088 615.302 480.326 615.273 L 626.699 614.92 L 1126.98 614.901 L 1522.71 614.7 C 1568.82 614.212 1614.94 613.978 1661.05 613.996 C 1687.76 613.946 1715.04 612.709 1741.64 615.209 L 1744.03 616.159 C 1765.15 620.759 1780.21 628.663 1795.42 644.148 C 1798.25 647.035 1802.8 653.357 1806.41 654.616 C 1812.07 678.936 1809.33 707.009 1809.23 731.958 L 1809.18 834.319 C 1809.22 853.493 1808.61 872.991 1809.7 892.13 C 1809.53 895.378 1809.17 898.761 1809.43 901.997 L 1744.06 902.088 L 1473.69 902.023 C 1471.36 899.689 1469.37 895.933 1467.5 893.175 C 1455.8 881.529 1445.77 868.029 1434.45 855.954 C 1416.46 836.775 1395.6 820.54 1374.19 805.388 C 1284.56 740.611 1172.61 714.695 1063.63 733.496 C 977.197 748.447 898.842 787.688 836.597 849.579 C 824.997 861.113 812.384 873.549 802.948 886.905 C 784.248 884.903 763.899 886.494 745.02 886.543 L 632.532 886.734 L 516.731 886.75 C 500.155 886.763 481.808 885.092 465.455 887.003 C 430.889 885.439 395.9 887.023 361.264 886.468 C 357.82 871.776 352.513 859.77 344.708 846.827 z"/>
<path transform="translate(0,0)" fill="rgb(217,89,18)" d="M 1743.92 892.231 C 1741.86 817.586 1743.08 742.451 1743.46 667.767 C 1743.51 657.708 1741.75 622.896 1744.03 616.159 C 1765.15 620.759 1780.21 628.663 1795.42 644.148 C 1798.25 647.035 1802.8 653.357 1806.41 654.616 C 1812.07 678.936 1809.33 707.009 1809.23 731.958 L 1809.18 834.319 C 1809.22 853.493 1808.61 872.991 1809.7 892.13 C 1787.77 892.41 1765.84 891.926 1743.92 892.231 z"/>
<path transform="translate(0,0)" fill="rgb(31,38,56)" d="M 1743.92 892.231 C 1765.84 891.926 1787.77 892.41 1809.7 892.13 C 1809.53 895.378 1809.17 898.761 1809.43 901.997 L 1744.06 902.088 L 1473.69 902.023 C 1471.36 899.689 1469.37 895.933 1467.5 893.175 C 1477.62 891.331 1489.21 892.145 1499.5 892.147 L 1553.32 892.251 L 1743.92 892.231 z"/>
<path transform="translate(0,0)" fill="rgb(31,38,56)" d="M 1585.68 651.303 C 1598.88 648.022 1612.67 647.929 1625.92 651.031 C 1668.2 660.938 1696.39 700.896 1691.55 744.053 C 1686.71 787.209 1650.37 819.929 1606.94 820.222 C 1563.51 820.515 1526.73 788.289 1521.31 745.201 C 1515.88 702.114 1543.54 661.778 1585.68 651.303 z"/>
<path transform="translate(0,0)" fill="rgb(0,0,7)" d="M 1585.68 651.303 C 1598.88 648.022 1612.67 647.929 1625.92 651.031 C 1617.58 656.499 1601.31 654.873 1591.87 652.963 C 1589.78 652.538 1587.72 651.947 1585.68 651.303 z"/>
<path transform="translate(0,0)" fill="rgb(11,147,200)" d="M 1532.14 751.003 C 1525.24 720.213 1538.17 688.372 1564.59 671.118 C 1591.01 653.863 1625.36 654.819 1650.78 673.517 C 1676.2 692.214 1687.35 724.725 1678.74 755.084 C 1669.3 788.39 1638.46 811.04 1603.85 810.076 C 1569.25 809.113 1539.71 784.783 1532.14 751.003 z"/>
<path transform="translate(0,0)" fill="rgb(162,229,246)" d="M 1532.14 751.003 C 1525.24 720.213 1538.17 688.372 1564.59 671.118 C 1591.01 653.863 1625.36 654.819 1650.78 673.517 C 1676.2 692.214 1687.35 724.725 1678.74 755.084 L 1677.59 754.48 C 1677.78 749.087 1677.59 744.298 1676.73 738.942 C 1674.02 719.255 1662.39 699.439 1646.46 687.513 C 1631.88 676.588 1614.01 673.094 1596.15 675.832 C 1577.67 678.666 1561.78 688.188 1550.7 703.278 C 1542.58 714.345 1537.41 728.305 1536.49 742.016 C 1535.42 745.422 1534.75 748.456 1532.14 751.003 z"/>
<path transform="translate(0,0)" fill="rgb(3,98,148)" d="M 1676.73 738.942 C 1677.59 744.298 1677.78 749.087 1677.59 754.48 L 1678.74 755.084 C 1669.3 788.39 1638.46 811.04 1603.85 810.076 C 1569.25 809.113 1539.71 784.783 1532.14 751.003 C 1534.75 748.456 1535.42 745.422 1536.49 742.016 C 1539.49 747.311 1541.22 753.521 1544.2 758.95 C 1552.9 774.792 1569.42 786.233 1586.64 791.076 C 1605.55 796.392 1624.77 793.944 1641.85 784.226 C 1656.8 775.715 1670.06 761.728 1674.6 744.826 C 1675.04 743.175 1675.39 741.649 1676.14 740.101 C 1676.33 739.711 1676.53 739.328 1676.73 738.942 z"/>
<path transform="translate(0,0)" fill="rgb(12,181,140)" d="M 1473.69 902.023 L 1744.06 902.088 C 1746.19 939.746 1744.68 978.034 1744.46 1015.78 C 1744.01 1081.33 1743.9 1146.88 1744.12 1212.43 C 1744.98 1284.34 1745.14 1356.26 1744.58 1428.17 L 1744.87 1485 C 1744.97 1498.67 1745.69 1512.74 1743.83 1526.31 C 1741.55 1543 1734.03 1558.3 1722.81 1570.81 C 1708.03 1587.29 1689.26 1597.68 1667 1598.83 C 1639.82 1600.24 1612 1599.03 1584.76 1599.03 L 1409.64 1598.33 C 1387.35 1598.26 1365.07 1598.39 1342.79 1598.72 C 1332.59 1598.82 1320.79 1600.16 1310.84 1598.51 C 1326.37 1591.78 1342.13 1585.45 1357.27 1577.85 C 1408.22 1552.21 1452.78 1515.48 1487.67 1470.35 C 1547.88 1393.18 1572.04 1299.17 1564.34 1202.32 C 1563.25 1188.62 1562.13 1174.58 1559.74 1161.03 C 1558.14 1151.93 1555.33 1142.94 1554.25 1133.78 L 1554.12 1132.67 C 1551.71 1071.82 1534.42 1007.91 1505.99 954.019 C 1496.45 935.943 1485.15 918.915 1473.69 902.023 z"/>
<path transform="translate(0,0)" fill="rgb(219,181,145)" d="M 1817.24 1589.91 L 1818.82 1590.44 C 1841.3 1597.92 1889.69 1608.45 1901.67 1631.43 C 1903.84 1635.59 1904.69 1639.73 1902.99 1644.22 C 1897.96 1657.44 1877.66 1667.46 1865.31 1672.47 C 1820.71 1690.57 1774.63 1700.46 1727.53 1709.29 C 1661.55 1721.67 1595.51 1729.82 1528.74 1736.42 C 1284.89 1759.3 1039.76 1765.57 795.057 1755.16 C 650.127 1749.33 505.753 1739.7 362.576 1715.48 C 306.065 1705.92 246.145 1696.37 193.191 1673.64 C 182.311 1668.96 166.532 1661.78 161.658 1650.21 C 159.832 1645.87 160.081 1641.51 161.956 1637.24 C 169.053 1621.08 194.376 1611.13 209.899 1605.6 C 220.012 1601.99 230.827 1600.48 240.743 1596.84 C 248.678 1605.41 256.595 1613.58 265.937 1620.67 C 286.55 1636.31 314.412 1647.41 340.175 1649.99 C 347.746 1650.75 355.693 1649.85 363.314 1649.73 L 403.271 1649.51 L 537.43 1649.76 L 1032.64 1649.62 L 1505.62 1649.54 L 1638.54 1649.06 C 1666.27 1649.02 1695.64 1650.99 1723.12 1647.17 C 1761.27 1641.86 1794.18 1620.23 1817.24 1589.91 z"/>
<path transform="translate(0,0)" fill="rgb(251,185,17)" d="M 241.561 807.092 C 242.977 796.636 242.237 785.055 242.433 774.459 C 243.071 739.91 241.251 704.639 243.712 670.23 C 245.753 641.7 256.859 612.47 279.037 593.527 C 291.367 582.996 309.418 573.612 325.751 572.15 C 351.233 569.868 377.853 571.499 403.498 571.457 L 553.366 571.172 L 1026.3 571.133 L 1475.31 571.326 L 1616.43 571.503 C 1640.76 571.501 1666.25 569.914 1690.42 571.854 C 1726.41 570.576 1747.88 572.276 1775.18 597.991 C 1790.03 611.974 1804.89 633.665 1806.41 654.616 C 1802.8 653.357 1798.25 647.035 1795.42 644.148 C 1780.21 628.663 1765.15 620.759 1744.03 616.159 L 1741.64 615.209 C 1715.04 612.709 1687.76 613.946 1661.05 613.996 C 1614.94 613.978 1568.82 614.212 1522.71 614.7 L 1126.98 614.901 L 626.699 614.92 L 480.326 615.273 C 454.088 615.302 426.094 613.553 400.011 616.142 C 392.535 616.884 382.926 623.52 377.221 628.259 C 359.1 643.314 348.636 670.252 346.781 693.264 C 345.599 707.922 346.463 723.15 346.563 737.858 L 346.888 807.651 C 346.988 818.417 348.965 831.461 347.178 842.03 C 346.807 844.227 346.343 845.35 344.708 846.827 C 341.649 843.061 338.592 839.273 335.141 835.856 C 317.959 818.845 292.174 805.657 267.498 806.315 C 259.301 806.533 251.23 808.604 243.026 808.643 L 241.561 807.092 z"/>
<path transform="translate(0,0)" fill="url(#Gradient1)" d="M 1744.06 902.088 L 1809.43 901.997 C 1810.73 914.494 1809.94 927.594 1809.95 940.179 L 1809.97 1008.56 L 1809.95 1232.64 L 1809.94 1431.74 L 1809.99 1490.55 C 1810 1503.34 1810.54 1516.41 1808.9 1529.11 C 1806.64 1546.61 1797.48 1564.21 1786.52 1577.84 C 1766.01 1603.34 1737.17 1615.86 1705.12 1619.19 C 1690.25 1620.73 1674.86 1620.04 1659.91 1620.04 L 1589.38 1620.01 L 1365.52 1619.08 C 1331.92 1619 1297.77 1617.76 1264.22 1619.06 L 1260.15 1617.51 C 1276.33 1612.87 1291.57 1607.23 1306.95 1600.39 C 1308.33 1600.26 1309.64 1599.2 1310.84 1598.51 C 1320.79 1600.16 1332.59 1598.82 1342.79 1598.72 C 1365.07 1598.39 1387.35 1598.26 1409.64 1598.33 L 1584.76 1599.03 C 1612 1599.03 1639.82 1600.24 1667 1598.83 C 1689.26 1597.68 1708.03 1587.29 1722.81 1570.81 C 1734.03 1558.3 1741.55 1543 1743.83 1526.31 C 1745.69 1512.74 1744.97 1498.67 1744.87 1485 L 1744.58 1428.17 C 1745.14 1356.26 1744.98 1284.34 1744.12 1212.43 C 1743.9 1146.88 1744.01 1081.33 1744.46 1015.78 C 1744.68 978.034 1746.19 939.746 1744.06 902.088 z"/>
<path transform="translate(0,0)" fill="rgb(51,187,229)" d="M 858.225 539.811 C 869.699 516.363 900.204 448.388 917.313 433.399 C 922.427 428.919 930.865 424.433 937.659 423.548 C 956.101 421.145 983.815 422.965 1003.47 422.968 L 1144.68 423.083 L 1370.76 423.142 C 1415.57 423.079 1460.85 421.756 1505.61 423.781 C 1516.88 430.24 1524.84 436.274 1530.77 448.171 C 1541.77 478.775 1554.9 508.655 1566.43 539.069 L 1084.22 539.172 L 946.01 539.456 C 922.269 539.565 898.159 540.582 874.452 539.711 L 858.225 539.811 z"/>
<path transform="translate(0,0)" fill="rgb(162,229,246)" d="M 858.225 539.811 C 869.699 516.363 900.204 448.388 917.313 433.399 C 922.427 428.919 930.865 424.433 937.659 423.548 C 956.101 421.145 983.815 422.965 1003.47 422.968 L 1144.68 423.083 L 1370.76 423.142 C 1415.57 423.079 1460.85 421.756 1505.61 423.781 C 1516.88 430.24 1524.84 436.274 1530.77 448.171 C 1510.66 443.986 1487.43 447.384 1466.86 447.742 C 1440.97 447.97 1415.09 448.055 1389.2 447.996 L 1173.81 448.185 C 1130.36 448.095 1086.91 448.679 1043.48 449.937 C 1022.9 450.433 1002.35 450.44 981.795 451.571 C 974.171 451.991 963.75 451.943 957.286 456.302 C 952.024 459.851 947.829 464.477 944.202 469.644 C 935.712 481.741 915.782 524.182 909.969 538.825 C 899.017 538.794 885.042 537.172 874.452 539.711 L 858.225 539.811 z"/>
<path transform="translate(0,0)" fill="rgb(11,147,200)" d="M 1505.61 423.781 C 1520.77 422.06 1536.93 423.081 1552.2 423.003 C 1564.92 422.939 1579.2 421.57 1591.75 423.489 C 1597.51 424.369 1604.6 426.037 1609.15 429.894 C 1613.16 433.287 1616.66 438.24 1619.36 442.729 C 1629.9 460.239 1638.27 479.741 1647.21 498.159 C 1653.77 511.665 1661.55 525.442 1666.97 539.408 L 1566.43 539.069 C 1554.9 508.655 1541.77 478.775 1530.77 448.171 C 1524.84 436.274 1516.88 430.24 1505.61 423.781 z"/>
<path transform="translate(0,0)" fill="rgb(11,147,200)" d="M 415.445 503.404 C 418.512 499.595 422.167 496.107 426.366 493.576 C 429.838 491.482 434.117 489.771 438.169 489.296 C 456.594 487.137 483.908 488.91 503.379 488.916 C 540.756 488.927 578.685 487.556 615.974 489.369 C 620.18 489.574 624.104 490.134 628.191 491.172 C 634.563 493.261 638.359 496.506 642.873 501.381 C 643.847 513.759 644.161 526.046 644.29 538.458 L 481.012 538.053 C 467.629 538.075 424.726 540.024 415.074 537.586 C 413.252 534.944 413.847 533.183 413.937 530.03 C 413.927 521.059 413.87 512.263 415.445 503.404 z"/>
<path transform="translate(0,0)" fill="rgb(162,229,246)" d="M 415.445 503.404 C 418.512 499.595 422.167 496.107 426.366 493.576 C 429.838 491.482 434.117 489.771 438.169 489.296 C 456.594 487.137 483.908 488.91 503.379 488.916 C 540.756 488.927 578.685 487.556 615.974 489.369 C 620.18 489.574 624.104 490.134 628.191 491.172 C 612.328 501.658 502.664 509.726 478.587 511.056 C 464.316 511.844 445.655 509.093 432.127 513.625 C 423.549 516.498 418.993 523.05 413.937 530.03 C 413.927 521.059 413.87 512.263 415.445 503.404 z"/>
<path transform="translate(0,0)" fill="rgb(251,185,17)" d="M 466.788 467.39 C 474.85 456.468 486.902 448.412 499.855 444.54 C 523.858 437.364 552.919 439.038 575.108 450.804 C 584.539 457.513 592.01 464.99 597.951 474.996 C 552.765 474.986 507.471 475.559 462.298 474.76 L 466.788 467.39 z"/>
<path transform="translate(0,0)" fill="rgb(241,223,196)" d="M 466.788 467.39 C 474.85 456.468 486.902 448.412 499.855 444.54 C 523.858 437.364 552.919 439.038 575.108 450.804 C 572.392 452.282 569.771 453.356 566.736 454.006 C 547.786 458.064 527.641 459.09 508.418 461.584 C 494.721 463.361 480.533 466.578 466.788 467.39 z"/>
</svg>