<?xml version="1.0" ?>
<svg xmlns="http://www.w3.org/2000/svg" width="150" height="100" viewBox="0 0 150 100">
  <path d="M 10 95 A 45 45 0 0 1 90 95" fill="none" stroke="#FF0000" stroke-width="5" opacity="0.8"/>
  <path d="M 10 90 A 40 40 0 0 1 90 90" fill="none" stroke="#FF7F00" stroke-width="5" opacity="0.8"/>
  <path d="M 10 85 A 35 35 0 0 1 90 85" fill="none" stroke="#FFFF00" stroke-width="5" opacity="0.8"/>
  <path d="M 10 80 A 30 30 0 0 1 90 80" fill="none" stroke="#00FF00" stroke-width="5" opacity="0.8"/>
  <path d="M 10 75 A 25 25 0 0 1 90 75" fill="none" stroke="#0000FF" stroke-width="5" opacity="0.8"/>
  <path d="M 10 70 A 20 20 0 0 1 90 70" fill="none" stroke="#4B0082" stroke-width="5" opacity="0.8"/>
  <path d="M 10 65 A 15 15 0 0 1 90 65" fill="none" stroke="#9400D3" stroke-width="5" opacity="0.8"/>
  <g transform="translate(5, 85)">
    <circle cx="0" cy="0" r="6" fill="white"/>
    <circle cx="6" cy="-2" r="5" fill="white"/>
    <circle cx="12" cy="0" r="6" fill="white"/>
    <circle cx="6" cy="3" r="4" fill="white"/>
  </g>
  <g transform="translate(83, 85)">
    <circle cx="0" cy="0" r="6" fill="white"/>
    <circle cx="6" cy="-2" r="5" fill="white"/>
    <circle cx="12" cy="0" r="6" fill="white"/>
    <circle cx="6" cy="3" r="4" fill="white"/>
  </g>
</svg>